<svg width="54" height="54" viewBox="0 0 54 54" fill="none" xmlns="http://www.w3.org/2000/svg">
<path d="M13.8149 10.458C17.3297 6.99624 22.0665 5.0579 26.9999 5.06251C31.9409 5.06251 36.6839 6.99976 40.1849 10.458C43.3551 13.5855 45.0066 17.0865 45.4431 20.7225C45.8774 24.327 45.1011 27.945 43.6206 31.338C40.6821 38.088 34.8411 44.226 29.2386 48.2198C28.5856 48.687 27.8028 48.9382 26.9999 48.9382C26.1969 48.9382 25.4141 48.687 24.7611 48.2198C19.1586 44.226 13.3176 38.0858 10.3769 31.338C8.89862 27.945 8.12462 24.327 8.55662 20.7203C8.99312 17.0865 10.6446 13.5878 13.8149 10.458ZM20.8124 22.5C20.8124 20.859 21.4643 19.2852 22.6246 18.1248C23.785 16.9644 25.3588 16.3125 26.9999 16.3125C28.6409 16.3125 30.2147 16.9644 31.3751 18.1248C32.5355 19.2852 33.1874 20.859 33.1874 22.5C33.1874 24.141 32.5355 25.7149 31.3751 26.8752C30.2147 28.0356 28.6409 28.6875 26.9999 28.6875C25.3588 28.6875 23.785 28.0356 22.6246 26.8752C21.4643 25.7149 20.8124 24.141 20.8124 22.5Z" fill="#2563EB"/>
<path d="M31.9754 14.5752C32.0311 14.5193 32.0973 14.475 32.1702 14.4447C32.2431 14.4145 32.3213 14.3989 32.4002 14.3989C32.4791 14.3989 32.5572 14.4145 32.6301 14.4447C32.703 14.475 32.7692 14.5193 32.825 14.5752L36.425 18.1752C36.5376 18.2879 36.6009 18.4407 36.6009 18.6C36.6009 18.7593 36.5376 18.9121 36.425 19.0248C36.3123 19.1375 36.1595 19.2008 36.0002 19.2008C35.8408 19.2008 35.688 19.1375 35.5754 19.0248L35.1002 18.5484L32.9486 20.7L35.225 22.9752C35.3376 23.0879 35.4009 23.2407 35.4009 23.4C35.4009 23.5593 35.3376 23.7121 35.225 23.8248C35.1123 23.9375 34.9595 24.0008 34.8002 24.0008C34.6408 24.0008 34.488 23.9375 34.3754 23.8248L33.0002 22.4484L26.3282 29.1204C26.0495 29.3993 25.7186 29.6206 25.3543 29.7715C24.9901 29.9224 24.5997 30.0001 24.2054 30H21.8486L18.425 33.4248C18.3123 33.5375 18.1595 33.6008 18.0002 33.6008C17.8408 33.6008 17.688 33.5375 17.5754 33.4248C17.4627 33.3121 17.3994 33.1593 17.3994 33C17.3994 32.8407 17.4627 32.6879 17.5754 32.5752L21.0002 29.1516V26.7936C21.0003 25.9983 21.3163 25.2356 21.8786 24.6732L22.5506 24L23.5754 25.0248C23.688 25.1375 23.8408 25.2008 24.0002 25.2008C24.1595 25.2008 24.3123 25.1375 24.425 25.0248C24.5376 24.9121 24.6009 24.7593 24.6009 24.6C24.6009 24.4407 24.5376 24.2879 24.425 24.1752L23.4002 23.1516L24.3518 22.2L25.3754 23.2248C25.488 23.3375 25.6408 23.4008 25.8002 23.4008C25.9595 23.4008 26.1123 23.3375 26.225 23.2248C26.3376 23.1121 26.4009 22.9593 26.4009 22.8C26.4009 22.6407 26.3376 22.4879 26.225 22.3752L25.2002 21.3516L26.1518 20.4L27.1754 21.4248C27.288 21.5375 27.4408 21.6008 27.6002 21.6008C27.7595 21.6008 27.9123 21.5375 28.025 21.4248C28.1376 21.3121 28.2009 21.1593 28.2009 21C28.2009 20.8407 28.1376 20.6879 28.025 20.5752L27.0002 19.5516L28.5518 18L27.1754 16.6248C27.0627 16.5121 26.9994 16.3593 26.9994 16.2C26.9994 16.0407 27.0627 15.8879 27.1754 15.7752C27.288 15.6625 27.4408 15.5992 27.6002 15.5992C27.7595 15.5992 27.9123 15.6625 28.025 15.7752L30.3002 18.0516L32.4518 15.9L31.9754 15.4248C31.9195 15.3691 31.8752 15.3029 31.8449 15.23C31.8147 15.1571 31.7991 15.0789 31.7991 15C31.7991 14.9211 31.8147 14.8429 31.8449 14.77C31.8752 14.6971 31.9195 14.6309 31.9754 14.5752ZM34.2518 17.7L33.3002 16.7484L31.1486 18.9L32.1002 19.8516L34.2518 17.7Z" fill="white"/>
</svg>
